<svg width="41" height="40" version="1.1" viewBox="0 0 41 40" xmlns="http://www.w3.org/2000/svg">
 <path d="m37.6 0h-34.2c-1.91 0-3.42 1.47-3.42 3.33v33.3c0 1.87 1.5 3.33 3.42 3.33h34.2c1.91 0 3.42-1.47 3.42-3.33v-33.3c0-1.87-1.5-3.33-3.42-3.33zm-17.1 38.7v-13.3h-5.47v-5.33h5.47v-4.67c0-3.8 3.01-7 6.83-7.33h6.15v5.33h-5.47c-1.16 0-2.05 0.867-2.05 2v4.67h6.83v5.33h-6.83v13.3h-5.47v-1e-4zm17.1 0c1.16 0 2.05-0.867 2.05-2h1e-4v-33.3c0-1.13-0.888-2-2.05-2h-34.2c-1.16 0-2.05 0.867-2.05 2v33.3c0 1.13 0.888 2 2.05 2h15.7v-12h-5.47v-8h5.47v-3.33c0-4.47 3.55-8.27 8.13-8.67h7.58v8h-6.83c-0.41 0-0.683 0.267-0.683 0.667v3.33h6.83v8h-6.83v12h10.2z" fill-rule="evenodd"/>
</svg>
