<svg width="45" height="58" version="1.1" viewBox="0 0 45 58" xmlns="http://www.w3.org/2000/svg">
 <path d="m43.66 11.37 0.771 0.771c0.458 0.458 0.55 1.02 0.55 1.79v42c0 0.837-0.842 1.65-1.84 1.91-0.0196 0.0051-0.0389 0.0111-0.0583 0.0172-0.0073 0.0023-0.0147 0.0045-0.022 0.0068-0.0073 0.0022-0.0145 0.0044-0.0219 0.0064-0.0156 0.0045-0.0315 0.0085-0.0478 0.0116-0.156 0.031-0.315 0.048-0.475 0.048h-40.1c-0.16 0-0.319-0.017-0.475-0.048-0.0316-0.0061-0.0617-0.0155-0.0917-0.0248-0.0194-0.0061-0.0387-0.0121-0.0583-0.0172-0.996-0.257-1.84-1.07-1.84-1.91v-53.1c0-2.01 1.28-2.93 2.46-2.93h29c0.495 0 0.979 0.201 1.33 0.55l0.771 0.771zm-10.7 0.584h8.44l-8.44-8.44zm-30.5 44c-0.065 0-0.124-0.0218-0.182-0.0431l-0.016-0.0059c-0.156-0.074-0.265-0.23-0.265-0.414v-14.5h41v14.5c0 0.184-0.109 0.339-0.265 0.414l-0.016 0.0059c-0.0578 0.0213-0.117 0.0431-0.182 0.0431zm-0.463-53.1v36.1h41v-25c0-0.015-1e-3 -0.021-1e-3 -0.036-0.126 0.033-0.255 0.058-0.39 0.058h-11.6v-11.6c0-0.135 0.025-0.265 0.058-0.391h-28.6c-0.43 0-0.463 0.709-0.463 0.926z" fill-rule="evenodd"/>
</svg>
