<svg width="40" height="40" version="1.1" viewBox="0 0 40 40" xmlns="http://www.w3.org/2000/svg">
 <path d="m11.4 0c-6.27 1.18e-15 -11.4 5.13-11.4 11.4v17.2c1.18e-15 6.27 5.13 11.4 11.4 11.4h17.2c6.27 0 11.4-5.13 11.4-11.4v-17.2c0-6.27-5.13-11.4-11.4-11.4h-17.2zm0 1.33h17.2c5.53 0 10.1 4.53 10.1 10.1v17.2c0 5.53-4.53 10.1-10.1 10.1h-17.2c-5.53 0-10.1-4.53-10.1-10.1v-17.2c0-5.53 4.53-10.1 10.1-10.1zm0 2.67c-4.07 0-7.4 3.33-7.4 7.4v17.2c0 4.07 3.33 7.4 7.4 7.4h17.2c4.07 0 7.4-3.33 7.4-7.4v-17.2c0-4.07-3.33-7.4-7.4-7.4h-17.2zm0 1.33h17.2c3.33 0 6.07 2.73 6.07 6.07v17.2c0 3.33-2.73 6.07-6.07 6.07h-17.2c-3.33 0-6.07-2.73-6.07-6.07v-17.2c0-3.33 2.73-6.07 6.07-6.07zm18.6 2.67c-1.13 0-2 0.867-2 2 0 1.13 0.867 2 2 2s2-0.867 2-2c0-1.13-0.867-2-2-2zm-9.5 2c-5.78 0-10.5 4.72-10.5 10.5s4.72 10.5 10.5 10.5 10.5-4.72 10.5-10.5-4.72-10.5-10.5-10.5zm0 1.31c5.05 0 9.19 4.13 9.19 9.19s-4.13 9.19-9.19 9.19-9.19-4.13-9.19-9.19 4.13-9.19 9.19-9.19zm-0.0762 2.15c-3.88 0-7 3.12-7 7 0 3.88 3.12 7 7 7s7-3.12 7-7-3.12-7-7-7zm0 1.27c3.18 0 5.73 2.55 5.73 5.73s-2.54 5.73-5.73 5.73-5.73-2.54-5.73-5.73 2.54-5.73 5.73-5.73z"/>
</svg>
