<svg width="45" height="58" version="1.1" viewBox="0 0 45 58" xmlns="http://www.w3.org/2000/svg">
 <path d="m18.1 18.1c0 3.07-2.5 5.57-5.57 5.57s-5.57-2.5-5.57-5.57 2.5-5.57 5.57-5.57 5.57 2.5 5.57 5.57zm-2 0c0-1.97-1.6-3.57-3.57-3.57s-3.57 1.6-3.57 3.57 1.6 3.57 3.57 3.57 3.57-1.6 3.57-3.57zm-3.28 25.6v7.71c-0.019 0.446-0.17 0.763-0.457 0.949s-0.671 0.281-1.15 0.281c-0.191 0-0.396-0.0224-0.615-0.0684s-0.429-0.0972-0.629-0.156c-0.201-0.06-0.386-0.123-0.555-0.191-0.169-0.068-0.3-0.136-0.391-0.199l-0.695 1.11c0.182 0.137 0.405 0.26 0.67 0.369 0.264 0.109 0.539 0.208 0.826 0.295s0.565 0.148 0.834 0.189 0.502 0.0625 0.703 0.0625c0.401 0 0.792-0.0382 1.17-0.115 0.378-0.077 0.712-0.214 1-0.41s0.524-0.456 0.697-0.779 0.26-0.722 0.26-1.2v-7.85zm16.4 0.043c-0.593 0-1.14 0.112-1.65 0.336-0.511 0.224-0.954 0.548-1.33 0.977s-0.675 0.965-0.889 1.61c-0.214 0.643-0.322 1.39-0.322 2.23s0.108 1.6 0.322 2.24 0.51 1.19 0.889 1.61c0.378 0.429 0.82 0.752 1.33 0.971s1.06 0.328 1.66 0.328c0.301 0 0.605-0.0224 0.91-0.0684s0.602-0.123 0.889-0.232 0.561-0.247 0.82-0.416 0.493-0.386 0.703-0.65v-3.89h-3.34v1.12h1.71v2.49c-0.073 0.101-0.187 0.178-0.342 0.232-0.155 0.055-0.316 0.0969-0.484 0.129-0.169 0.032-0.337 0.0554-0.506 0.0684-0.169 0.014-0.304 0.0215-0.404 0.0215-0.328 0-0.64-0.0774-0.936-0.232-0.296-0.155-0.561-0.392-0.793-0.711s-0.415-0.729-0.547-1.23-0.204-1.09-0.213-1.78c9e-3 -0.702 0.0818-1.29 0.219-1.78s0.325-0.878 0.566-1.18 0.515-0.52 0.82-0.648 0.627-0.191 0.965-0.191c0.301 0 0.592 0.0597 0.875 0.178 0.282 0.118 0.533 0.31 0.752 0.574l1.13-1.01c-0.374-0.364-0.798-0.638-1.27-0.82-0.474-0.183-0.984-0.273-1.53-0.273zm-12.3 0.162v10.1h1.64v-3.64h1.22c0.528 0 1.01-0.0774 1.45-0.232 0.437-0.155 0.811-0.374 1.12-0.656 0.31-0.282 0.551-0.63 0.725-1.04 0.173-0.415 0.26-0.878 0.26-1.39 0-0.483-0.104-0.919-0.309-1.31s-0.475-0.716-0.807-0.99c-0.333-0.273-0.71-0.479-1.13-0.615-0.419-0.137-0.843-0.205-1.27-0.205zm1.64 1.24h1.23c0.419 0 0.756 0.0653 1.01 0.197 0.255 0.132 0.454 0.296 0.596 0.492 0.141 0.196 0.233 0.401 0.279 0.615 0.045 0.214 0.0684 0.402 0.0684 0.566 0 0.411-0.0504 0.755-0.15 1.03-0.101 0.278-0.232 0.495-0.396 0.65s-0.343 0.266-0.539 0.334-0.396 0.104-0.596 0.104h-1.5zm25.8-33-11.6-11.6c-0.35-0.35-0.834-0.551-1.33-0.551h-29c-1.19 0-2.46 0.916-2.46 2.93v53.1c0 0.837 0.842 1.65 1.84 1.91 0.0196 0.0051 0.039 0.0111 0.0583 0.0172 0.03 0.0093 0.0601 0.0187 0.0917 0.0248 0.156 0.031 0.315 0.048 0.475 0.048h40.1c0.16 0 0.319-0.017 0.475-0.048 0.0332-0.0064 0.0652-0.0164 0.0972-0.0265 0.0182-0.0057 0.0364-0.0114 0.0548-0.0165 0.995-0.257 1.84-1.07 1.84-1.91v-42c0-0.767-0.093-1.33-0.551-1.79zm-3.01-0.187h-8.44v-8.44l4.25 4.25zm-10.4-10h-28.6c-0.43 0-0.463 0.709-0.463 0.926v34.9l15.4-13.1c0.397-0.337 0.986-0.314 1.36 0.055l4.74 4.74 9.8-10.7c0.182-0.198 0.434-0.315 0.703-0.325 0.28-0.01 0.53 0.089 0.725 0.274l8.31 7.9v-12.7c0-0.015-1e-3 -0.021-1e-3 -0.036-0.126 0.033-0.256 0.058-0.391 0.058h-11.6v-11.6c0-0.135 0.025-0.265 0.058-0.391zm-28.6 54c-0.065 0-0.124-0.0218-0.182-0.0431l-0.016-0.0059c-0.156-0.074-0.265-0.23-0.265-0.414v-14.5h41v14.5c0 0.184-0.11 0.34-0.265 0.414l-0.0041 0.0016c-0.0617 0.0235-0.124 0.0474-0.194 0.0474zm15.5-29.1-14.2 12.1h39.3v-9.57l-8.95-8.5-9.17 10 4.81 4.81c0.391 0.391 0.391 1.02 0 1.41s-1.02 0.391-1.41 0z" fill-rule="evenodd"/>
</svg>
