<svg width="45" height="58" viewBox="0 0 45 58" xmlns="http://www.w3.org/2000/svg">
 <path d="m31.9 23c-0.919 0-2.05 0.12-3.36 0.358-1.83-1.94-3.74-4.78-5.09-7.56 1.33-5.59 0.678-6.41 0.38-6.79l-0.0067-0.00844c-0.0315-0.0402-0.0643-0.0829-0.0984-0.127-0.305-0.397-0.709-0.922-1.16-0.922-0.211 0-0.787 0.096-1.02 0.172-0.576 0.192-0.886 0.636-1.13 1.22-0.707 1.65 0.263 4.47 1.26 6.64-0.853 3.39-2.28 7.45-3.79 10.8-3.79 1.74-5.8 3.44-5.98 5.07-0.066 0.592 0.074 1.46 1.12 2.24 0.285 0.213 0.619 0.326 0.967 0.326 0.875 0 1.76-0.67 2.78-2.11 0.746-1.05 1.55-2.48 2.38-4.25 2.68-1.17 5.99-2.23 8.83-2.82 1.58 1.52 3 2.28 4.21 2.28 0.896 0 1.66-0.412 2.22-1.19 0.579-0.811 0.711-1.54 0.39-2.16-0.385-0.749-1.33-1.12-2.9-1.12zm-17.9 9.67c-0.468-0.359-0.441-0.601-0.431-0.692v-2e-4c0.062-0.556 0.933-1.54 3.07-2.74-1.62 2.99-2.49 3.39-2.64 3.44zm8.2-22.9c0.043-0.014 1.04 1.1 0.096 3.22-1.43-1.46-0.194-3.18-0.096-3.22zm-2.07 16c1.02-2.42 1.96-5.09 2.67-7.56 1.12 2.02 2.47 3.98 3.82 5.54-2.13 0.501-4.41 1.21-6.5 2.02zm11.7-0.038c0.234 0 0.902-0.01 1.21-0.441 0.149-0.209 0.207-0.343 0.229-0.414-9e-3 -0.0049-0.0182-0.01-0.0279-0.0155-0.123-0.069-0.323-0.182-1.15-0.182-0.505 0-1.14 0.022-1.81 0.108 0.207 0.159 0.375 0.299 0.518 0.418 0.42 0.35 0.632 0.526 1.03 0.526zm-21.6 18.2v10.1h1.64v-3.64h1.22c0.528 0 1.01-0.0774 1.45-0.232 0.437-0.155 0.811-0.374 1.12-0.656s0.551-0.63 0.725-1.04c0.173-0.415 0.26-0.878 0.26-1.39 0-0.483-0.104-0.919-0.309-1.31s-0.474-0.716-0.807-0.99c-0.333-0.273-0.71-0.479-1.13-0.615-0.419-0.137-0.843-0.205-1.27-0.205zm8.34 0v10.1h3.81c0.127 0 0.323-0.0168 0.588-0.0488 0.264-0.032 0.556-0.104 0.875-0.219 0.319-0.114 0.648-0.284 0.99-0.512 0.342-0.228 0.65-0.54 0.924-0.938s0.498-0.889 0.676-1.48 0.268-1.3 0.268-2.13c0-0.602-0.105-1.19-0.314-1.76-0.211-0.568-0.527-1.07-0.951-1.52-0.424-0.446-0.957-0.806-1.6-1.07s-1.39-0.402-2.23-0.402zm10.5 0v10.1h1.67v-4.54h4.21v-1.12h-4.21v-3.17h4.63v-1.24zm-8.87 1.24h0.957c0.784 0 1.42 0.104 1.91 0.309s0.883 0.474 1.17 0.807 0.479 0.705 0.58 1.12c0.1 0.41 0.15 0.825 0.15 1.24 0 1.35-0.246 2.38-0.738 3.09-0.492 0.711-1.29 1.06-2.41 1.06h-1.63zm-8.34 2e-3h1.23c0.419 0 0.756 0.0653 1.01 0.197 0.255 0.132 0.454 0.296 0.596 0.492 0.141 0.196 0.233 0.401 0.279 0.615 0.045 0.214 0.0684 0.402 0.0684 0.566 0 0.411-0.0504 0.755-0.15 1.03-0.101 0.278-0.232 0.495-0.396 0.65-0.164 0.155-0.343 0.266-0.539 0.334s-0.396 0.104-0.596 0.104h-1.5zm31.8-33.8 0.771 0.771c0.458 0.458 0.55 1.02 0.55 1.79v42c0 0.837-0.842 1.65-1.84 1.91-0.0196 0.0051-0.0389 0.0111-0.0583 0.0172-0.0073 0.0023-0.0147 0.0045-0.022 0.0068-0.0073 0.0022-0.0145 0.0044-0.0219 0.0064-0.0156 0.0045-0.0315 0.0085-0.0478 0.0116-0.156 0.031-0.315 0.048-0.475 0.048h-40.1c-0.16 0-0.319-0.017-0.475-0.048-0.0316-0.0061-0.0617-0.0155-0.0917-0.0248-0.0194-0.0061-0.0387-0.0121-0.0583-0.0172-0.996-0.257-1.84-1.07-1.84-1.91v-53.1c0-2.01 1.28-2.93 2.46-2.93h29c0.495 0 0.979 0.201 1.33 0.55l0.771 0.771zm-10.7 0.584h8.44l-8.44-8.44zm-30.5 44c-0.065 0-0.124-0.0218-0.182-0.0431l-0.016-0.0059c-0.156-0.074-0.265-0.23-0.265-0.414v-14.5h41v14.5c0 0.184-0.109 0.339-0.265 0.414l-0.016 0.0059c-0.0578 0.0213-0.117 0.0431-0.182 0.0431zm-0.463-53.1v36.1h41v-25c0-0.015-1e-3 -0.021-1e-3 -0.036-0.126 0.033-0.255 0.058-0.39 0.058h-11.6v-11.6c0-0.135 0.025-0.265 0.058-0.391h-28.6c-0.43 0-0.463 0.709-0.463 0.926z" fill-rule="evenodd"/>
</svg>
