<svg width="52.8" height="30.4" viewBox="0 0 52.8 30.4">
 <path d="m25.4 0.0105c-2.77-0.0285-5.13-0.0539-6.71 0.717-0.552 0.268-0.991 0.656-1.29 1.05-0.149 0.195-0.275 0.371-0.33 0.666-0.0274 0.147-0.0363 0.362 0.0957 0.582 0.132 0.22 0.391 0.345 0.576 0.369 0.439 0.0583 1.43 0.319 1.85 0.883 0.256 0.345 0.47 1.14 0.557 1.83 0.0862 0.687 0.082 1.25 0.082 1.25l-2e-3 0.0254 2e-3 0.0254s0.111 1.63 0.0371 3.34c-0.0371 0.857-0.122 1.73-0.277 2.4-0.155 0.669-0.437 1.06-0.484 1.09-0.125 0.0674-0.174 0.0813-0.357 0.0195s-0.49-0.25-0.885-0.646c-0.789-0.793-1.91-2.37-3.43-4.98-1.54-2.64-2.72-5.59-2.72-5.59l-4e-3 -0.00782s-0.228-0.676-0.855-1.13c-0.676-0.492-1.47-0.592-1.47-0.592l-0.0547-0.00977-7.42 0.0488h-0.00586s-0.329 0.00814-0.717 0.0879c-0.388 0.0798-0.883 0.192-1.27 0.646-0.387 0.455-0.348 0.967-0.299 1.32 0.0492 0.353 0.156 0.631 0.156 0.631l0.0117 0.0273s5.72 13.4 12.4 20.3c6.16 6.36 13.3 5.96 13.3 5.96l-0.0391 2e-3h3.11l0.0352-0.0039s1.07-0.0253 1.81-0.811c0.719-0.767 0.598-1.79 0.598-1.79s-0.0102-0.966 0.197-1.98c0.104-0.508 0.266-1.02 0.479-1.4 0.213-0.378 0.45-0.6 0.727-0.688 0.207-0.0653 0.491-0.0062 0.943 0.309 0.453 0.315 0.996 0.853 1.57 1.48 1.14 1.26 2.39 2.86 3.81 3.83 1.05 0.718 2.01 1.01 2.71 1.12 0.7 0.106 1.2 0.0156 1.2 0.0156l-0.115 0.0137 6.89-0.0957 0.0156-2e-3s0.999-0.0297 1.88-0.549c0.439-0.26 0.884-0.692 1.03-1.32 0.147-0.628-0.0211-1.35-0.502-2.14 0.0135 0.0221-0.106-0.203-0.281-0.486-0.176-0.283-0.436-0.673-0.822-1.17-0.772-0.998-2.04-2.43-4.12-4.35-1.08-0.993-1.84-1.7-2.25-2.22s-0.478-0.765-0.391-1.17c0.174-0.817 1.57-2.48 4.18-5.93 1.59-2.11 2.72-3.81 3.41-5.17 0.692-1.36 1.04-2.36 0.713-3.27-0.17-0.47-0.557-0.767-0.928-0.932-0.371-0.165-0.754-0.233-1.11-0.268-0.714-0.0697-1.35 0.00781-1.35 0.00781l0.0723-0.00391-7.74 0.0469 0.0898 0.00586s-0.722-0.153-1.42 0.26v0.00195c-0.692 0.412-0.941 1.11-0.941 1.11l-0.0098 0.0215-0.0078 0.0215s-1.22 3.2-2.81 5.88c-1.71 2.87-2.9 4.36-3.65 5.04-0.375 0.336-0.633 0.458-0.748 0.488-0.115 0.03-0.0758 0.0144-0.0801 0.0117-0.384-0.246-0.61-0.85-0.686-1.74-0.0754-0.887 2e-3 -1.95 2e-3 -2.89 0-2.78 0.222-4.74 0.111-6.22-0.0552-0.74-0.195-1.39-0.572-1.93-0.377-0.538-0.979-0.889-1.71-1.06-0.849-0.203-1.58-0.351-3.76-0.373zm-0.0137 1.3c2.13 0.0212 2.63 0.138 3.47 0.338 0.533 0.128 0.777 0.298 0.951 0.547 0.175 0.249 0.293 0.652 0.34 1.28 0.0933 1.25-0.113 3.28-0.113 6.12 0 0.861-0.0866 1.96 2e-3 3 0.0886 1.04 0.354 2.13 1.28 2.72 0.277 0.178 0.701 0.26 1.11 0.152s0.815-0.358 1.29-0.779c0.941-0.842 2.16-2.41 3.9-5.34 1.66-2.8 2.87-6 2.89-6.04 0 0 0.286-0.456 0.426-0.539 0.155-0.0918 0.58-0.0898 0.58-0.0898l0.0449 0.00586 7.82-0.0488 0.0352-0.00391s0.527-0.0589 1.07-0.00586c0.272 0.0265 0.538 0.0859 0.709 0.162 0.171 0.0762 0.216 0.135 0.234 0.186 0.0672 0.186-0.0164 1-0.648 2.24-0.632 1.24-1.72 2.9-3.29 4.97-2.58 3.42-4.08 4.87-4.41 6.44-0.167 0.785 0.104 1.56 0.637 2.24 0.532 0.684 1.32 1.39 2.39 2.38 2.04 1.88 3.25 3.26 3.97 4.19 0.36 0.465 0.596 0.817 0.748 1.06 0.152 0.246 0.192 0.34 0.275 0.477 0.37 0.61 0.393 0.967 0.346 1.17-0.0473 0.202-0.181 0.352-0.428 0.498-0.491 0.291-1.28 0.368-1.29 0.369l-6.91 0.0957-0.0566 0.0117s-0.236 0.0542-0.76-0.0254-1.28-0.301-2.17-0.908c-1.15-0.781-2.4-2.33-3.58-3.63-0.593-0.654-1.17-1.25-1.79-1.68-0.613-0.426-1.34-0.712-2.08-0.48-0.681 0.214-1.15 0.73-1.47 1.29-0.315 0.559-0.498 1.18-0.619 1.78-0.241 1.18-0.223 2.26-0.223 2.26s-0.0939 0.722-0.248 0.887c-0.213 0.228-0.973 0.399-0.988 0.402h-3.04l-0.0195 2e-3s-6.46 0.416-12.3-5.57c-6.34-6.56-12.1-19.9-12.1-19.9-0.0025-0.00689-0.058-0.157-0.084-0.344-0.0266-0.191 0.0269-0.329 0-0.297 0.0183-0.0215 0.278-0.162 0.543-0.217 0.265-0.0546 0.49-0.0625 0.49-0.0625l7.25-0.0469c0.0315 0.00699 0.581 0.128 0.889 0.352 0.191 0.139 0.42 0.576 0.42 0.576 0.0026 0.00654 1.2 3.01 2.8 5.76 1.55 2.65 2.68 4.29 3.63 5.25 0.477 0.48 0.916 0.801 1.39 0.961 0.475 0.16 0.996 0.107 1.39-0.107 0.713-0.386 0.944-1.13 1.13-1.94 0.187-0.804 0.272-1.74 0.311-2.64 0.0775-1.79-0.0375-3.44-0.0391-3.46 2.57e-4 -0.024 0.0083-0.629-0.0879-1.4-0.0981-0.782-0.265-1.72-0.803-2.44-0.546-0.738-1.26-1.02-1.89-1.19 0.166-0.152 0.308-0.315 0.512-0.414 1.06-0.516 3.38-0.614 6.13-0.586z"/>
</svg>
