<svg width="45" height="34.9" version="1.1" viewBox="0 0 45 34.9" xmlns="http://www.w3.org/2000/svg">
 <path d="m22.5 0c-0.0751 0-9.24 0.0751-15.3 0.682h-0.227c-1.05 0.0758-2.93 0.304-4.58 2.2-1.5 1.59-1.95 5-1.95 5.16 0 0-0.451 3.87-0.451 7.73v3.56c0 3.32 0.346 6.7 0.432 7.54 0.0121 0.118 0.0195 0.186 0.0195 0.195 0 0.152 0.45 3.49 1.88 5.08 1.57 1.81 3.43 2.04 4.64 2.2l0.0215 2e-3c0.225 0 0.376 3.72e-4 0.602 0.0762 3.46 0.303 14.4 0.455 14.9 0.455 0.075 0 9.24 6.59e-4 15.3-0.682h0.227c1.05-0.0758 2.93-0.304 4.58-2.2 1.5-1.59 1.95-5 1.95-5.16 0 0 0.451-3.87 0.451-7.73v-3.56c0-3.32-0.346-6.7-0.432-7.54-0.0121-0.118-0.0195-0.186-0.0195-0.195 0-0.152-0.45-3.49-1.88-5.08-1.73-1.9-3.61-2.12-4.58-2.2h-0.299c-6.09-0.455-15.2-0.531-15.3-0.531zm0 1.52c0.0751 0 9.16 0.0764 15.2 0.531h0.301c0.826 0.0758 2.33 0.228 3.61 1.74 0.902 1.06 1.35 3.49 1.5 4.32 0.0751 0.152 0.451 3.94 0.451 7.58v3.56c0 3.79-0.451 7.58-0.451 7.58-0.15 0.834-0.602 3.26-1.58 4.32-1.28 1.52-2.78 1.67-3.61 1.74h-0.225c-6.01 0.455-15.1 0.455-15.2 0.455-0.0751 0-11.3-0.152-14.7-0.531-0.113 0-0.225-0.0182-0.338-0.0371-0.113-0.019-0.225-0.0391-0.338-0.0391-1.05-0.0758-2.55-0.303-3.76-1.67-0.902-0.986-1.43-3.41-1.5-4.25 0-0.0095-0.00721-0.0772-0.0195-0.195-0.0863-0.827-0.432-4.13-0.432-7.38v-3.56c0-3.79 0.451-7.58 0.451-7.58 0.0751-0.834 0.6-3.26 1.5-4.32 1.35-1.52 2.78-1.67 3.68-1.74h0.225c6.01-0.455 15.1-0.531 15.2-0.531zm-4.84 7.48c-0.131 0-0.262 0.0375-0.375 0.113-0.225 0.152-0.375 0.379-0.375 0.682v16.4c0 0.303 0.15 0.53 0.375 0.682 0.15 0.0758 0.225 0.0762 0.375 0.0762 0.15 0 0.225-3.72e-4 0.375-0.0762l14.2-8.03c0.225-0.152 0.375-0.379 0.375-0.682 0-0.303-0.15-0.53-0.375-0.682l-14.2-8.41c-0.112-0.0758-0.244-0.113-0.375-0.113zm0.75 2.08 12 7.12-12 6.74z"/>
</svg>
