<svg width="45" height="58" version="1.1" viewBox="0 0 45 58" xmlns="http://www.w3.org/2000/svg">
 <path d="m25 23h-2v2h4v5c0 2.76-2.24 5-5 5s-5-2.24-5-5v-5h4v-2h-2v-2h2v-2h-2v-2h2v-2h-2v-2h2v-2h-2v-2h2v-2h2v2h2v2h-2v2h2v2h-2v2h2v2h-2v2h2zm-3 10c1.65 0 3-1.35 3-3v-3h-6v3c0 1.65 1.35 3 3 3zm-8.93 10.9v1.33h5.09l-0.287 0.219-4.8 7.21v1.33h6.7v-1.33h-5.07l0.273-0.219 4.8-7.21v-1.33zm9.04 0v10.1h1.67v-10.1zm4.17 0v10.1h1.64v-3.64h1.22c0.528 0 1.01-0.0774 1.45-0.232 0.437-0.155 0.811-0.374 1.12-0.656s0.551-0.63 0.725-1.04c0.173-0.415 0.26-0.878 0.26-1.39 0-0.483-0.104-0.919-0.309-1.31s-0.474-0.716-0.807-0.99c-0.333-0.273-0.71-0.479-1.13-0.615-0.419-0.137-0.843-0.205-1.27-0.205zm1.64 1.24h1.23c0.419 0 0.756 0.0653 1.01 0.197 0.255 0.132 0.454 0.296 0.596 0.492 0.141 0.196 0.233 0.401 0.279 0.615 0.045 0.214 0.0684 0.402 0.0684 0.566 1e-3 0.411-0.0504 0.755-0.15 1.03-0.101 0.278-0.232 0.495-0.396 0.65s-0.343 0.266-0.539 0.334-0.396 0.104-0.596 0.104h-1.5zm15.8-33.8 0.77 0.77c0.458 0.459 0.55 1.03 0.55 1.79v42c0 0.838-0.843 1.65-1.84 1.91-0.0202 0.0052-0.0399 0.0115-0.0595 0.0177h-1e-4c-0.029 0.0092-0.058 0.0183-0.0884 0.0243-0.156 0.031-0.315 0.048-0.475 0.048h-40.1c-0.16 0-0.319-0.017-0.476-0.048-0.0304-6e-3 -0.0594-0.0151-0.0885-0.0243-0.0197-0.0062-0.0394-0.0125-0.0595-0.0177-0.996-0.256-1.84-1.07-1.84-1.91v-53.1c0-2.01 1.28-2.93 2.46-2.93h29c0.495 0 0.98 0.201 1.33 0.552l0.768 0.768c1e-3 0 2e-3 1e-3 2e-3 1e-3zm-2.24 0.583-8.44-8.44v8.44zm-39 44c-0.0694 0-0.132-0.0239-0.194-0.0474l-0.00416-0.0016c-0.156-0.075-0.265-0.231-0.265-0.414v-14.5h41v14.5c0 0.183-0.109 0.339-0.265 0.414l-0.0041 0.0016c-0.0617 0.0235-0.124 0.0474-0.194 0.0474zm-0.463-53.1v36.1h41v-25c0-0.0083-3e-4 -0.0139-5e-4 -0.0193-3e-4 -5e-3 -5e-4 -0.0099-5e-4 -0.0167-0.126 0.033-0.255 0.058-0.39 0.058h-11.6v-11.6c0-0.136 0.025-0.266 0.058-0.392h-28.6c-0.43 0-0.463 0.709-0.463 0.926z" fill-rule="evenodd"/>
</svg>
