<svg width="51" height="53" version="1.1" viewBox="0 0 51 53" xmlns="http://www.w3.org/2000/svg">
 <path d="m21 0c-11.6 0-21 9.42-21 21s9.42 21 21 21c5.08 0 9.75-1.82 13.4-4.83l14.9 15.5c0.196 0.205 0.46 0.309 0.723 0.309 0.25 0 0.497-0.0933 0.691-0.279 0.398-0.383 0.411-1.02 0.0293-1.41l-14.9-15.5c3.79-3.8 6.14-9.04 6.14-14.8 0-11.6-9.42-21-21-21zm0 2c10.5 0 19 8.52 19 19s-8.52 19-19 19-19-8.52-19-19 8.52-19 19-19zm0 11c-0.552 0-1 0.448-1 1v6h-6c-0.552 0-1 0.448-1 1s0.448 1 1 1h6v6c0 0.552 0.448 1 1 1s1-0.448 1-1v-6h6c0.552 0 1-0.448 1-1s-0.448-1-1-1h-6v-6c0-0.552-0.448-1-1-1z"/>
</svg>
