<svg class="comics__balloon" width="243" height="97" viewBox="0 0 243 97" xmlns="http://www.w3.org/2000/svg" preserveAspectRatio="xMidYMid meet">
<path d="M237.86 4.79262C237.743 4.28754 237.634 3.83835 237.536 3.4491H2.50626V81.1331C3.31039 81.281 4.34491 81.4687 5.59309 81.6899C8.90797 82.2774 13.7294 83.1012 19.7447 84.0447C31.7769 85.9318 48.5782 88.296 67.6497 90.2043C105.864 94.0279 152.927 95.9908 189.015 88.7554C206.797 85.1902 218.523 77.959 226.213 69.2761C233.922 60.5721 237.736 50.227 239.366 40.1925C240.997 30.1484 240.423 20.5031 239.428 13.3391C238.931 9.76483 238.332 6.82778 237.86 4.79262Z"/>
</svg>
