<svg class="comics__balloon" width="304" height="122" viewBox="0 0 304 122" xmlns="http://www.w3.org/2000/svg"  preserveAspectRatio="xMidYMid meet">
<path d="M2.93492 5.09229C2.99355 4.27891 3.05334 3.57089 3.10842 2.97754H300.506V80.5537C299.527 80.9286 298.107 81.4662 296.284 82.14C292.512 83.5336 287.016 85.5093 280.13 87.832C266.356 92.478 247.035 98.5085 224.851 104.045C180.397 115.14 124.784 124.162 79.2932 116.339C56.7671 112.465 40.8707 103.324 29.6314 91.8842C18.368 80.42 11.6658 66.5272 7.75019 53.0084C3.83365 39.4866 2.72844 26.4174 2.60868 16.7089C2.54888 11.8607 2.73497 7.86606 2.93492 5.09229Z"/>
</svg>
