<svg class="comics__balloon" width="279.9" height="90.49" viewBox="0 0 279.9 90.49" xmlns="http://www.w3.org/2000/svg" preserveAspectRatio="xMidYMid meet">
 <path d="m274.6 3.72c-0.14-0.4603-0.27-0.8681-0.387-1.22h-271.7v75.17c0.8491 0.1343-0.05782 0.3053 1.276 0.5069 3.492 0.5279 8.588 1.265 14.99 2.101 12.81 1.672 30.85 3.737 51.76 5.308 41.86 3.146 95.05 4.301 140.8-3.562 22.7-3.904 37.78-11.02 47.69-19.33 9.889-8.284 14.78-17.86 16.95-26.96 2.178-9.139 1.616-17.85 0.488-24.32-0.563-3.225-1.263-5.869-1.818-7.696z"/>
</svg>
