<svg width="24.54" height="96.78" version="1.1" viewBox="0 0 24.54 96.78" xmlns="http://www.w3.org/2000/svg">
 <path d="m8.879 1.341c-0.4936 0.5204-0.925 1.129-1.327 1.706-2.54 3.641-4.912 7.443-7.25 11.22-0.8625 1.392 0.2378 3.358 1.889 3.309 0.1238-4e-3 0.246-0.0088 0.3699-0.01208 6.673 0.4241 13.37 0.7103 20.05 0.8458 1.358 0.02823 2.475-1.655 1.644-2.849-2.254-3.238-4.505-6.478-6.753-9.722-1.293-1.866-2.868-5.454-5.467-5.803-1.338-0.1801-2.336 0.4422-3.159 1.309zm0.9252 26.09c-0.3287 0.394-0.5566 0.9029-0.619 1.524-0.4572 4.532 0.3938 9.756 1.299 14.21 0.3625 1.782 3.089 1.336 3.111-0.4125 0.0581-4.629 0.7121-9.188 0.8585-13.78 0.08937-2.798-3.224-3.241-4.649-1.534zm0.2729 25.03c-0.3089 0.4049-0.4916 0.9317-0.4734 1.582 0.145 5.191 0.26 10.54 0.9639 15.68 0.2139 1.56 2.887 1.545 3.13 7e-3 0.8113-5.135 1.028-10.49 1.279-15.68 0.1351-2.803-3.561-3.35-4.899-1.595zm0.4723 27.46c-0.2792 0.3749-0.4401 0.8631-0.4096 1.463 0.233 4.603 0.7657 9.172 0.9268 13.78 0.07482 2.149 3.311 2.171 3.351 8e-3 0.08585-4.608 0.5439-9.179 0.7024-13.78 0.08962-2.61-3.361-3.099-4.571-1.474z" fill="#3f3e3e"/>
</svg>
