<svg width="24.52" height="70.89" version="1.1" viewBox="0 0 24.52 70.89" xmlns="http://www.w3.org/2000/svg">
 <path d="m13.02 0.009766c-0.2421-0.02002-0.4947-0.01078-0.7617 0.0293-2.593 0.3892-4.115 4-5.379 5.885-2.198 3.277-4.399 6.55-6.604 9.822-0.8133 1.206 0.3297 2.873 1.688 2.824 6.681-0.2371 13.37-0.625 20.04-1.15 0.1239 0.0013 0.2471 0.005612 0.3711 0.007812 1.652 0.0248 2.723-1.959 1.84-3.338-2.395-3.738-4.824-7.503-7.42-11.11-0.9595-1.331-2.075-2.834-3.77-2.975zm-0.3086 26.42c-1.289 0.005937-2.511 0.8555-2.43 2.576 0.2162 4.594 0.9399 9.141 1.068 13.77 0.0487 1.748 2.78 2.153 3.115 0.3652 0.8371-4.464 1.61-9.702 1.084-14.23-0.1918-1.652-1.549-2.49-2.838-2.484zm0.05078 25.03c-1.376 0.02661-2.73 0.9174-2.621 2.641 0.3296 5.185 0.6285 10.53 1.518 15.65 0.2668 1.534 2.937 1.508 3.127-0.05469 0.6256-5.156 0.6623-10.5 0.7285-15.69 0.0221-1.736-1.376-2.573-2.752-2.547z" fill="#3f3e3e" />
</svg>
