<svg width="307.2" height="40.2" fill="#2d2d2d" viewBox="0 0 307.2 40.2" xmlns="http://www.w3.org/2000/svg" preserveAspectRatio="none">
 <path  d="m8.4 31.8c1.6 1.6 3.4 2.8 5.4 3.6 1.5 0.6 3 1 4.6 1.2v-6.4h-11.4c0.4 0.5 0.9 1.1 1.4 1.6m20.7-21.6c-0.8-0.8-2.1-0.8-2.9 0s-0.8 2.1 0 2.9c0.8 0.8 2.1 0.8 2.9 0 0.8-0.8 0.8-2.1 0-2.9m-10.7-6.6c-3.6 0.4-7.2 2-10 4.8-2.3 2.3-3.8 5.2-4.5 8.2h14.5zm3.5 13h14.5c-0.3-1.2-0.7-2.4-1.2-3.6-0.8-1.7-1.9-3.3-3.3-4.7-2.8-2.8-6.4-4.4-10-4.8-2e-6 2e-7 -2e-6 13.1-2e-6 13.1zm-18.4 3.5c0 2.2 0.4 4.5 1.3 6.5h17v13.6h-1.8c-2.7 0-5.3-0.5-7.7-1.5-2.4-1-4.6-2.5-6.5-4.3-3.8-4-5.8-9.2-5.8-14.3 0-5.1 2-10.3 5.9-14.2s9.1-5.9 14.3-5.9 10.3 2 14.3 5.9c1.7 1.6 3 3.6 4 5.7 1 2.1 1.6 4.4 1.8 6.7l0.2 1.9z"/>
 <path d="m86.7 10v13.7c0.2 1.6 0.9004 3 1.9 4 1.2 1.2 2.901 2 4.701 2 1.8 0 3.499-0.7 4.699-2 1.2-1.2 2-2.899 2-4.699 0.1-1.8-0.7004-3.499-1.9-4.699-1.2-1.2-2.899-2-4.699-2-1.7 0-3.3 0.6992-4.5 1.699v-8zm33 0v19.7h2.201v-5.6h2.1c0.3 1.4 0.9004 2.6 1.9 3.6 1.2 1.3 2.899 2 4.699 2v-2.199c-1.3 0-2.399-0.5008-3.199-1.301-0.7-0.8-1.201-1.798-1.301-2.898v-0.7012l4.701-4.699-1.602-1.6-5.6 5.6h-1.799v-11.9zm120.7 0v8c-1.2-1.1-2.8-1.699-4.5-1.699-1.8 0-3.501 0.7-4.701 2-1.2 1.2-2 2.899-2 4.699 0 1.8 0.7 3.499 2 4.699 1.2 1.2 2.901 2 4.701 2s3.499-0.7 4.699-2l0.0996-0.09961c0 0.1 0.1016 0.1012 0.1016 0.2012 0.3 0.7 0.6992 1.298 1.199 1.898l1.5-1.6c-0.2-0.3-0.3996-0.6996-0.5996-1.1-0.2-0.4-0.3008-0.9008-0.3008-1.301v-15.7zm23.1 0v6.301h-1.699v2.199h1.699v7.1c0 0.8 0.2004 1.501 0.4004 2.201 0.3 0.7 0.6992 1.298 1.199 1.898l1.6-1.6c-0.3-0.3-0.5988-0.6996-0.7988-1.1-0.2-0.4-0.3008-0.9004-0.3008-1.4l0.09961-7.1h1.602v-2.199h-1.602v-6.301zm-93.4 0.3008v19.3h2.201v-6.199h6v-2.201h-6v-8.6h4.5c1.2 0 2.3 0.5008 3.1 1.301l1.6-1.6c-1.2-1.2-2.7-1.9-4.5-2h-5.801zm-116.2 0.09961v19.3h2.199v-5.898h3.701c0.3 1.6 1.1 2.998 2 3.898 1.2 1.2 2.899 2 4.699 2v-2.199c-1.2 0-2.399-0.5008-3.199-1.301-0.6-0.7-1.001-1.6-1.201-2.6 1.2-0.3 2.3-0.8988 3.1-1.799 1.2-1.2 2-2.901 2-4.701 0-1.8-0.7-3.499-2-4.699-1.2-1.2-2.7-1.9-4.5-2h-5.699zm217.9 1.799a1.5 1.5 0 0 0-1.5 1.5 1.5 1.5 0 0 0 1.5 1.5 1.5 1.5 0 0 0 1.5-1.5 1.5 1.5 0 0 0-1.5-1.5zm-215.7 0.4004h4.5c1.2 0 2.3 0.5008 3.1 1.301 0.8 0.8 1.301 1.899 1.301 3.199 0 1.2-0.5008 2.401-1.301 3.201-0.8 0.8-1.899 1.299-3.199 1.299h-4.5zm13.9 3.6v6.701c0 1.8 0.8 3.499 2 4.699 1.2 1.2 2.899 2 4.699 2 1.7 0 3.3-0.6992 4.5-1.699v0.09961c0 0.9-0.2992 1.8-0.6992 2.6-0.5 0.8-1.1 1.5-2 2l-5.1 3 1.1 1.9 5.1-3c1.2-0.7 2.101-1.601 2.801-2.801 0.6-1.1 1-2.399 1-3.699v-11.7h-2.201v6.699c0 1.2-0.4988 2.3-1.299 3.1-0.8 0.8-1.901 1.301-3.201 1.301-1.2 0-2.399-0.5008-3.199-1.301-0.8-0.8-1.301-1.899-1.301-3.199v-6.701zm126.1 0v6.701c0 1.8 0.7 3.499 2 4.699 1.2 1.2 2.901 2 4.701 2s3.499-0.7 4.699-2l0.09961-0.09961c0 0.1 0.0996 0.09922 0.0996 0.1992 0.3 0.7 0.7012 1.3 1.201 1.9l1.5-1.6c-0.3-0.3-0.6008-0.6996-0.8008-1.1-0.2-0.4-0.2988-0.9008-0.2988-1.301v-9.299h-2v6.699c0 1.2-0.5008 2.3-1.301 3.1-0.8 0.8-1.899 1.301-3.199 1.301s-2.401-0.5008-3.201-1.301c-0.8-0.8-1.299-1.899-1.299-3.199v-6.701zm-57.4 0.1016c-1.8 0-3.499 0.7-4.699 2-1.2 1.2-2 2.899-2 4.699 0 1.8 0.7 3.499 2 4.699 1.2 1.2 2.899 2 4.699 2s3.501-0.7 4.701-2c1.2-1.2 2-2.899 2-4.699 0-1.8-0.8-3.499-2-4.699-1.2-1.2-2.901-2-4.701-2zm48.6 0c-1.8 0-3.501 0.7-4.701 2-1.2 1.2-2 2.899-2 4.699 0 1.8 0.7 3.499 2 4.699 1.2 1.2 2.901 2 4.701 2s3.499-0.7 4.699-2c1.2-1.2 2-2.899 2-4.699-0.1-1.8-0.8-3.499-2-4.699s-2.899-2-4.699-2zm25.8 0v13.4h2.201v-6.699c0-1.2 0.4988-2.3 1.299-3.1 0.8-0.8 1.901-1.301 3.201-1.301s2.399 0.5008 3.199 1.301c0.8 0.8 1.301 1.899 1.301 3.199v2.6c0 0.8 0.1984 1.501 0.3984 2.201 0.3 0.7 0.7012 1.3 1.201 1.9l1.6-1.602c-0.2-0.4-0.4992-0.7992-0.6992-1.199s-0.3008-0.9004-0.3008-1.4v-2.6c0-1.8-0.7-3.499-2-4.699-1.2-1.2-2.899-2-4.699-2-1.7 0-3.3 0.6992-4.5 1.699v-1.699zm57.6 0v13.4h2.201v-13.4zm12 0c-1.8 0-3.499 0.7-4.699 2-1.2 1.2-2 2.899-2 4.699 0 1.8 0.7 3.499 2 4.699 1.2 1.2 2.899 2 4.699 2 1.8 0 3.501-0.7 4.701-2 1.2-1.2 2-2.899 2-4.699 0-1.8-0.8-3.499-2-4.699s-2.901-2-4.701-2zm9 0v13.4h2.201v-6.699c0-1.2 0.4988-2.3 1.299-3.1 0.8-0.8 1.901-1.301 3.201-1.301 1.2 0 2.399 0.5008 3.199 1.301 0.8 0.8 1.301 1.899 1.301 3.199v2.6c0 0.8 0.2004 1.501 0.4004 2.201 0.3 0.7 0.6992 1.3 1.199 1.9l1.6-1.602c-0.2-0.4-0.4992-0.7992-0.6992-1.199s-0.3008-0.9004-0.3008-1.4v-2.6c0-1.8-0.7-3.499-2-4.699-1.2-1.2-2.899-2-4.699-2-1.7 0-3.3 0.6992-4.5 1.699v-1.699zm-146.1 0.09961 5.701 13.3h2.398l5.701-13.3h-2.4l-3.9 9.1-0.5996 1.4v-0.09961l-0.9004-2-3.6-8.4zm-36.7 0.09961c-1.8 0-3.501 0.7-4.701 2-1.2 1.2-2 2.899-2 4.699 0 1.8 0.7 3.501 2 4.701 1.2 1.2 2.901 2 4.701 2 1.8 0 3.499-0.7 4.699-2l0.0996-0.09961c0 0.1 0.1016 0.09922 0.1016 0.1992 0.3 0.7 0.6992 1.3 1.199 1.9l1.5-1.6c-0.2-0.5-0.3996-0.9008-0.5996-1.301s-0.3008-0.9008-0.3008-1.301v-9.199h-2.199v1.699c-1.2-1.1-2.8-1.699-4.5-1.699zm143.2 0c-1.8 0-3.499 0.7-4.699 2-1.2 1.2-2 2.899-2 4.699 0 1.8 0.7 3.501 2 4.701 1.2 1.2 2.899 2 4.699 2s3.501-0.7 4.701-2l0.0996-0.09961c1e-5 0.1 0.09962 0.09922 0.09962 0.1992 0.3 0.7 0.6992 1.3 1.199 1.9l1.5-1.6c-0.2-0.5-0.3996-0.9008-0.5996-1.301-0.2-0.4-0.2988-0.9008-0.2988-1.301v-9.199h-2.201v1.699c-1.2-1.1-2.8-1.699-4.5-1.699zm-158.7 2c1.2 0 2.399 0.5008 3.199 1.301 0.8 0.8 1.301 1.899 1.301 3.199 0 1.3-0.5008 2.399-1.301 3.199-0.8 0.8-1.899 1.301-3.199 1.301-1.2 0-2.401-0.5008-3.201-1.301-0.8-0.8-1.299-1.899-1.299-3.199 0-1.2 0.4988-2.399 1.299-3.199 0.8-0.8 1.901-1.301 3.201-1.301zm15.5 0c1.3 0 2.399 0.5008 3.199 1.301 0.8 0.9 1.301 1.999 1.301 3.299 0 1.2-0.5008 2.3-1.301 3.1-0.8 0.8-1.899 1.301-3.199 1.301-1.3 0-2.401-0.5008-3.201-1.301-0.8-0.8-1.299-1.899-1.299-3.199 0-1.2 0.4988-2.399 1.299-3.199 0.8-0.8 1.901-1.301 3.201-1.301zm29.8 0c1.2 0 2.401 0.5008 3.201 1.301s1.299 1.899 1.299 3.199c0 1.3-0.4988 2.399-1.299 3.199-0.8 0.8-1.901 1.301-3.201 1.301s-2.399-0.5008-3.199-1.301-1.301-1.899-1.301-3.199c0-1.2 0.5008-2.399 1.301-3.199 0.8-0.8 1.899-1.301 3.199-1.301zm48.5 0c1.2 0 2.401 0.5008 3.201 1.301s1.299 1.899 1.299 3.199c0 1.3-0.4988 2.399-1.299 3.199-0.8 0.8-1.901 1.301-3.201 1.301s-2.399-0.5008-3.199-1.301-1.301-1.899-1.301-3.199c0-1.2 0.5008-2.399 1.301-3.199 0.8-0.8 1.899-1.301 3.199-1.301zm48.7 0c1.3 0 2.399 0.5008 3.199 1.301 0.8 0.9 1.301 1.999 1.301 3.299 0 1.2-0.5008 2.3-1.301 3.1-0.8 0.8-1.899 1.301-3.199 1.301s-2.401-0.5008-3.201-1.301-1.299-1.899-1.299-3.199c0-1.2 0.4988-2.399 1.299-3.199 0.8-0.8 1.901-1.301 3.201-1.301zm16.2 0c1.3 0 2.401 0.5008 3.201 1.301 0.8 0.9 1.299 1.999 1.299 3.299 0 1.2-0.4988 2.3-1.299 3.1-0.8 0.8-1.901 1.301-3.201 1.301s-2.399-0.5008-3.199-1.301-1.301-1.899-1.301-3.199c0-1.2 0.5008-2.399 1.301-3.199 0.8-0.8 1.899-1.301 3.199-1.301zm30.5 0c1.2 0 2.401 0.5008 3.201 1.301 0.8 0.8 1.299 1.899 1.299 3.199 0.1 1.3-0.4988 2.399-1.299 3.199-0.8 0.8-1.901 1.301-3.201 1.301-1.2 0-2.399-0.5008-3.199-1.301-0.8-0.8-1.301-1.899-1.301-3.199 0-1.2 0.5008-2.399 1.301-3.199 0.8-0.8 1.899-1.301 3.199-1.301z"/>
</svg>
